<?xml version="1.0" encoding="UTF-8"?>
<svg version="1.1" xmlns="http://www.w3.org/2000/svg" width="1024" height="1024">
<path d="M0 0 C22.46089644 21.09721104 35.53228794 49.90627512 36.58642578 80.7578125 C37.11865032 113.4188832 24.31117714 140.91120291 2.00390625 164.37109375 C-19.33711473 185.71211473 -49.22026469 197.26244652 -79.1875 197.5 C-110.25635741 197.22600426 -136.91646859 185.2196591 -159.375 164 C-173.78906692 149.08238489 -183.72463654 130.17771121 -188.75 110.125 C-188.93546387 109.40795898 -189.12092773 108.69091797 -189.31201172 107.95214844 C-191.06117701 100.39063639 -191.14806681 92.8559923 -191.125 85.125 C-191.12445618 84.43969208 -191.12391235 83.75438416 -191.12335205 83.04830933 C-191.08303851 71.98643501 -190.20119111 61.68606504 -186.75 51.125 C-186.42854004 50.1047876 -186.42854004 50.1047876 -186.10058594 49.06396484 C-181.37064335 34.3749801 -174.16589698 21.5809109 -163.75 10.125 C-163.26321777 9.58375488 -162.77643555 9.04250977 -162.27490234 8.48486328 C-141.78561559 -14.0235103 -114.65019774 -26.83748105 -84.22021484 -28.76855469 C-52.65329165 -30.12882139 -23.5315159 -21.36589228 0 0 Z M-91.75 24.125 C-92.29043945 24.56392578 -92.83087891 25.00285156 -93.38769531 25.45507812 C-119.12183679 46.45461551 -139.4094116 73.56371985 -147.75 106.125 C-147.94207031 106.85847656 -148.13414062 107.59195313 -148.33203125 108.34765625 C-150.23487834 120.99180841 -150.57168632 136.55113198 -143.0625 147.375 C-141.99117326 148.65325782 -140.88587435 149.90374102 -139.75 151.125 C-138.88568359 152.06859375 -138.88568359 152.06859375 -138.00390625 153.03125 C-130.82236108 160.07842114 -122.32629254 162.30433832 -112.4375 162.625 C-84.81733444 161.72495387 -61.40157416 143.77637767 -43.125 124.4375 C-19.54251504 98.79007393 -1.16440386 63.82653567 -2.56201172 28.38769531 C-2.96512269 23.53570502 -4.52965694 19.41041737 -6.75 15.125 C-7.554375 13.4853125 -7.554375 13.4853125 -8.375 11.8125 C-14.6051982 4.76253888 -22.63487314 1.88932027 -31.75 0.91015625 C-53.55281663 -0.12217408 -75.35279082 10.75169173 -91.75 24.125 Z " fill="#30A9FE" transform="translate(288.75,416.875)"/>
<path d="M0 0 C5.09206296 0.37033185 10.1273109 1.24637627 14.0859375 4.6796875 C19.50683385 10.97795436 19.07643554 18.18458586 18.65966797 26.0703125 C16.3317671 48.90932236 -2.82659014 69.7979188 -19.75390625 83.97265625 C-37.55458601 98.3604443 -58.99953114 110.21711416 -82.57421875 107.7890625 C-88.13528585 106.78588961 -91.95624807 104.85625193 -95.9375 100.875 C-99.79294125 94.64697952 -100.17928193 89.00676269 -99.00390625 81.84765625 C-91.70015562 52.47034815 -68.94742374 29.04525708 -44.1875 12.9375 C-30.49945506 4.77828594 -15.76713953 1.10646593 0 0 Z " fill="#2FA9FE" transform="translate(255.5625,434.75)"/>
<path d="M0 0 C2.5625 1.8125 2.5625 1.8125 3.20288086 3.86206055 C3.68941334 7.85374082 3.79782577 11.81388885 3.87890625 15.83203125 C3.89755737 16.59366577 3.9162085 17.35530029 3.9354248 18.14001465 C4.00340336 20.9682321 4.06375506 23.79662872 4.125 26.625 C4.269375 32.956875 4.41375 39.28875 4.5625 45.8125 C20.0725 45.8125 35.5825 45.8125 51.5625 45.8125 C51.4438045 31.79609113 51.4438045 31.79609113 51.29223633 17.7800293 C51.28347518 16.02393133 51.27583036 14.26782728 51.26953125 12.51171875 C51.2465094 11.1420697 51.2465094 11.1420697 51.22302246 9.74475098 C51.22247864 8.43576843 51.22247864 8.43576843 51.22192383 7.1003418 C51.21193108 5.96449898 51.21193108 5.96449898 51.20173645 4.80570984 C51.66058834 2.27056431 52.5826167 1.40594553 54.5625 -0.1875 C59.19321683 -2.07408834 64.73809284 -1.74275435 69.4375 -0.3125 C71.5625 0.8125 71.5625 0.8125 73.5625 2.8125 C73.81976891 4.76533318 73.81976891 4.76533318 73.82992554 7.20211792 C73.83845551 8.12464355 73.84698547 9.04716919 73.85577393 9.99765015 C73.85486755 11.01275665 73.85396118 12.02786316 73.85302734 13.07373047 C73.85974457 14.14049011 73.86646179 15.20724976 73.87338257 16.30633545 C73.89244551 19.84749964 73.896291 23.38847513 73.8984375 26.9296875 C73.90485983 29.38347452 73.91158775 31.83726076 73.91860962 34.29104614 C73.93060329 39.44095638 73.93428831 44.59079943 73.93310547 49.74072266 C73.9329022 56.34763957 73.96020337 62.95412669 73.99464989 69.5609417 C74.01686163 74.63093046 74.02094476 79.70081488 74.01988602 84.77084732 C74.02225066 87.20696621 74.03112234 89.6430876 74.04655075 92.07915878 C74.06609372 95.48390743 74.06041802 98.88771748 74.04833984 102.29248047 C74.05957886 103.30353851 74.07081787 104.31459656 74.08239746 105.35629272 C74.0207116 112.18128135 74.0207116 112.18128135 71.66421509 115.42752075 C67.67621742 118.05551445 63.14111902 118.26010934 58.4921875 117.453125 C56.06787122 116.78364854 53.81181982 115.93715991 51.5625 114.8125 C51.2325 99.6325 50.9025 84.4525 50.5625 68.8125 C35.0525 68.8125 19.5425 68.8125 3.5625 68.8125 C3.64148989 82.03548329 3.64148989 82.03548329 3.74267578 95.25830078 C3.74852094 96.92480207 3.75361644 98.59130624 3.7578125 100.2578125 C3.76804443 101.11238037 3.77827637 101.96694824 3.78881836 102.84741211 C3.79017746 107.52408864 3.59795284 111.4955134 1.5625 115.8125 C-3.93570752 118.44705777 -9.54011311 118.0909545 -15.4375 116.8125 C-16.4275 116.1525 -17.4175 115.4925 -18.4375 114.8125 C-18.85052849 111.72551947 -19.0433357 108.84125794 -19.1171875 105.73828125 C-19.15020966 104.74379471 -19.18323181 103.74930817 -19.21725464 102.72468567 C-19.65714306 87.30587727 -19.58729704 71.87064999 -19.56787109 56.44702148 C-19.56211851 51.87607703 -19.56550318 47.3051906 -19.57144356 42.73424816 C-19.57506938 39.16957669 -19.57390226 35.60491886 -19.57131577 32.04024696 C-19.57065499 30.35432236 -19.57144473 28.66839647 -19.57379532 26.98247337 C-19.58301314 18.53484574 -19.49731904 10.20948733 -18.4375 1.8125 C-11.95624784 -1.42812608 -7.10509632 -2.45448782 0 0 Z " fill="#30A9FE" transform="translate(386.4375,437.1875)"/>
<path d="M0 0 C2.76223278 2.76223278 2.57856291 5.20706617 3 9 C3.94875 8.0925 4.8975 7.185 5.875 6.25 C14.92558634 -1.31306423 24.52761158 -2.00817314 35.91308594 -1.22753906 C45.96645926 -0.13140617 55.31231158 5.45249635 61.75 13.125 C70.21396919 24.75803672 72.2328309 37.92825987 71 52 C68.53753108 64.90333712 62.60899528 75.20563612 52 83 C41.72092066 89.39587159 29.47475336 90.8709181 17.7265625 88.27734375 C12.09498042 86.37186324 8.48753616 83.80475057 4 80 C4.01571045 81.12494873 4.0314209 82.24989746 4.04760742 83.40893555 C4.10201216 87.59278165 4.13638836 91.77659662 4.16479492 95.96069336 C4.17985755 97.76966617 4.20031177 99.5786026 4.22631836 101.38745117 C4.2628132 103.99146515 4.27975157 106.5949952 4.29296875 109.19921875 C4.30845261 110.00461594 4.32393646 110.81001312 4.33988953 111.63981628 C4.34125627 116.22640698 4.05400683 119.31794964 1 123 C-4.28759801 124.76253267 -9.88482988 124.86333474 -15.0625 122.75 C-17.72875051 120.34177373 -17.92406531 118.30562813 -18.12863445 114.78824711 C-18.1303103 113.9798762 -18.13198614 113.1715053 -18.13371277 112.33863831 C-18.13797775 111.40639435 -18.14224274 110.47415039 -18.14663696 109.51365662 C-18.14618378 108.49796097 -18.14573059 107.48226532 -18.14526367 106.43579102 C-18.14862228 105.36059204 -18.1519809 104.28539307 -18.15544128 103.1776123 C-18.16494836 99.61969857 -18.1668942 96.0618319 -18.16796875 92.50390625 C-18.17118121 90.0329537 -18.17454528 87.56200134 -18.17805481 85.09104919 C-18.18404527 79.91022297 -18.18589476 74.72941343 -18.18530273 69.54858398 C-18.18520105 62.90608423 -18.19886 56.26369122 -18.21607494 49.62121677 C-18.22718583 44.51775113 -18.22922223 39.41431139 -18.22869301 34.31083488 C-18.22987424 31.8615984 -18.234304 29.41236127 -18.24202538 26.96313667 C-18.25180784 23.53988253 -18.24895411 20.1168613 -18.24291992 16.69360352 C-18.24853943 15.6799321 -18.25415894 14.66626068 -18.25994873 13.62187195 C-18.2190873 4.51276525 -18.2190873 4.51276525 -16 1 C-10.29203039 -1.16509192 -5.94465533 -1.22992869 0 0 Z M8.6875 26.1875 C3.2262287 33.19637952 1.93249028 41.30040932 3 50 C4.75415483 57.55720792 8.39206632 62.86122303 15 67 C21.66935633 69.70600933 29.57608422 70.64660124 36.4453125 68.08984375 C42.22963555 64.66983526 47.04139992 59.58043123 49.4921875 53.2421875 C51.24336456 45.51006725 51.06414537 37.05498907 47.3359375 29.96875 C43.8358335 24.810702 40.04761013 20.86147537 34 19 C23.78181135 17.95010248 15.92947508 18.61073775 8.6875 26.1875 Z " fill="#31A9FE" transform="translate(667,466)"/>
<path d="M0 0 C8.56127998 7.56755998 13.3569747 19.94991863 14.2734375 31.1171875 C14.74143235 43.75304847 10.83534861 55.99117114 2.8125 65.796875 C-5.8016309 74.98528129 -16.41851047 79.55959516 -28.95043945 80.01928711 C-40.39798944 80.14626985 -51.95128511 78.31730788 -60.9375 70.546875 C-60.9375 69.886875 -60.9375 69.226875 -60.9375 68.546875 C-61.5253125 68.30839844 -62.113125 68.06992187 -62.71875 67.82421875 C-69.22021902 64.08129556 -72.96894963 55.40281127 -75.21875 48.52734375 C-78.43779658 35.17879735 -77.22754047 22.441515 -70.6953125 10.37109375 C-63.86755401 -0.59883822 -54.42974557 -7.26512282 -41.9375 -10.453125 C-26.84238651 -13.93661273 -12.03679095 -9.02759321 0 0 Z M-50.58984375 17.3046875 C-54.9631419 23.36392378 -56.25216758 30.97456244 -55.74609375 38.328125 C-54.42343765 46.24022994 -50.79133208 51.09298745 -44.81640625 56.25 C-38.69723502 60.47362754 -32.10766457 60.22478147 -24.9375 59.546875 C-18.28269895 57.82034205 -13.68150628 53.15297965 -9.9375 47.546875 C-6.06357846 39.55176033 -6.24487866 32.32780884 -8.9609375 23.9765625 C-11.46450481 17.74768703 -15.02313194 13.81865307 -20.9375 10.546875 C-31.80937115 7.01891681 -42.75100032 8.96549236 -50.58984375 17.3046875 Z " fill="#31A9FE" transform="translate(548.9375,475.453125)"/>
<path d="M0 0 C9.20170831 9.78363453 12.32240819 20.71637719 13 34 C12.76189388 37.83450059 12.06565782 41.31414229 11 45 C10.72929688 45.93714844 10.45859375 46.87429688 10.1796875 47.83984375 C6.44203443 59.28836932 -1.34943502 68.73662297 -12.125 74.375 C-22.52370531 79.32016208 -36.36825626 79.84143315 -47.5 76.9375 C-59.88245881 72.31298659 -68.30773536 64.25352025 -73.95703125 52.4921875 C-79.28168192 39.76886494 -78.88459775 26.82492823 -74.375 13.9375 C-69.79197219 3.32239883 -61.61002593 -4.73713921 -51.01171875 -9.28125 C-33.15377924 -15.63477359 -14.11493226 -13.27538238 0 0 Z M-51.3125 15.125 C-55.88670803 20.95805002 -57.63794729 28.36126028 -57.3515625 35.703125 C-56.2825482 42.68735176 -53.53142814 48.52217722 -48 53 C-40.70067463 58.25551427 -34.85278372 58.72460507 -26 58 C-19.41516044 56.30798722 -14.67319345 51.57928303 -11 46 C-7.83077815 38.24597053 -7.76380003 29.54303001 -10.5 21.625 C-13.18501325 15.75810271 -17.59201033 11.70399484 -23.328125 8.8359375 C-33.62161193 5.61546059 -43.84756708 7.44211284 -51.3125 15.125 Z " fill="#31A9FE" transform="translate(823,477)"/>
<path d="M0 0 C2.93976321 2.94622423 3.74118697 4.84117369 3.90234375 9.03125 C3.86109375 9.93875 3.81984375 10.84625 3.77734375 11.78125 C2.05868158 12.8196711 0.32689777 13.83639635 -1.41015625 14.84375 C-2.37308594 15.41222656 -3.33601562 15.98070312 -4.328125 16.56640625 C-7.62364497 17.94954621 -8.90515473 18.00464757 -12.22265625 16.78125 C-14.03125 15.44140625 -14.03125 15.44140625 -15.66015625 13.84375 C-19.79638101 10.11846766 -23.20269928 8.92300137 -28.78515625 8.53125 C-33.23130603 8.85460635 -36.05302678 9.61162053 -39.22265625 12.78125 C-39.38942907 16.36468976 -39.38942907 16.36468976 -39.22265625 19.78125 C-33.46234633 22.89921592 -28.0847045 24.80051646 -21.72265625 26.28125 C-12.87575034 28.3403212 -4.65444836 31.0571037 1.77734375 37.78125 C5.91978044 44.99835244 6.91380859 52.05196445 5.3046875 60.1640625 C3.34205011 67.09793111 -0.47180236 71.53055137 -5.97265625 76.03125 C-17.14312416 82.04611734 -31.56820572 82.88971033 -43.84765625 79.65625 C-51.46120738 76.83444434 -58.51998915 72.18658419 -62.22265625 64.78125 C-62.84765625 62.03125 -62.84765625 62.03125 -62.22265625 58.78125 C-58.11393304 55.06675396 -53.37205784 52.72027866 -48.22265625 50.78125 C-47.56265625 51.85375 -46.90265625 52.92625 -46.22265625 54.03125 C-43.16011702 58.20205618 -40.28050202 60.49768793 -35.22265625 61.78125 C-26.2381378 62.80989437 -26.2381378 62.80989437 -17.82421875 60.4375 C-15.48960112 58.02316372 -15.35744876 56.08366645 -15.22265625 52.78125 C-15.49560944 50.48426554 -15.49560944 50.48426554 -17.22265625 48.78125 C-22.14957797 46.72379382 -27.04257207 45.24699349 -32.22583008 43.99487305 C-42.61035621 41.48388192 -51.78252651 39.2528518 -58.06640625 29.94921875 C-61.48234152 23.54434012 -61.90684107 16.77997358 -60.22265625 9.78125 C-57.77683429 2.27607063 -52.71073948 -2.83377824 -45.796875 -6.5078125 C-30.16956932 -13.26425259 -13.21809851 -10.51711274 0 0 Z " fill="#32AAFE" transform="translate(632.22265625,474.21875)"/>
<path d="M0 0 C2.40887003 2.71064056 3.71546366 4.79333826 3.90234375 8.4375 C2.09350548 12.55763161 -1.24564791 14.14594985 -5.22265625 16 C-8.97265625 17.125 -8.97265625 17.125 -12.22265625 17 C-13.61168892 15.37946188 -14.93598453 13.70294787 -16.22265625 12 C-21.98827679 8.45713337 -27.47991092 6.90050305 -34.2109375 8.4609375 C-35.89528427 8.92674883 -37.56140576 9.45755086 -39.22265625 10 C-39.31546875 11.8871875 -39.31546875 11.8871875 -39.41015625 13.8125 C-39.44496094 14.52019531 -39.47976563 15.22789062 -39.515625 15.95703125 C-39.37213707 18.04791097 -39.37213707 18.04791097 -38.078125 19.640625 C-35.61782537 21.4431182 -33.2799971 22.10224888 -30.34765625 22.9375 C-29.19007813 23.27910156 -28.0325 23.62070312 -26.83984375 23.97265625 C-24.4943999 24.63880283 -22.14557249 25.2931925 -19.79296875 25.93359375 C-10.91904103 28.44961326 -2.30113837 31.75819908 2.8359375 39.90234375 C6.31046183 47.64433365 6.30563309 55.28160763 3.8671875 63.30859375 C0.64122411 71.27522018 -4.83863951 74.22948822 -12.41796875 77.8359375 C-22.07958651 81.84591256 -36.33153092 81.6606968 -46.08203125 78.046875 C-53.42203506 74.4572381 -59.01180834 70.42169582 -62.72265625 63 C-63.22265625 60 -63.22265625 60 -61.97265625 57.4375 C-58.14599657 54.04568801 -53.86358054 52.08133055 -49.22265625 50 C-48.56910156 50.81404297 -48.56910156 50.81404297 -47.90234375 51.64453125 C-43.00406936 57.52882191 -39.13722411 60.71832472 -31.41015625 61.875 C-26.29330135 62.27039333 -21.79564815 61.36462224 -17.22265625 59 C-15.63897523 55.83263796 -15.80208919 53.4846985 -16.22265625 50 C-21.07539103 45.84051305 -26.49964817 44.56315137 -32.59765625 43 C-49.70519837 38.57731155 -49.70519837 38.57731155 -55.09765625 32.0625 C-55.65195312 31.41410156 -56.20625 30.76570313 -56.77734375 30.09765625 C-61.06849543 23.86968747 -61.04033816 17.32506714 -60.22265625 10 C-58.1177215 3.12137395 -54.3507309 -2.20416347 -48.22265625 -6 C-32.19226479 -14.2677475 -13.30073566 -12.31460517 0 0 Z " fill="#32AAFE" transform="translate(905.22265625,475)"/>
<path d="M0 0 C0.66 0.66 1.32 1.32 2 2 C-4.02356111 5.34642284 -9.26591212 5.54953925 -16 4 C-16.33 3.34 -16.66 2.68 -17 2 C-15.85660156 1.93941406 -14.71320313 1.87882813 -13.53515625 1.81640625 C-12.04425695 1.73201572 -10.55337225 1.64736698 -9.0625 1.5625 C-8.30775391 1.52318359 -7.55300781 1.48386719 -6.77539062 1.44335938 C-3.08055813 1.55961976 -3.08055813 1.55961976 0 0 Z " fill="#3DAEFB" transform="translate(457,550)"/>
<path d="M0 0 C-0.33 0.66 -0.66 1.32 -1 2 C-5.46648561 3.06632314 -9.80008379 3.10565959 -14.375 3.0625 C-16.24285156 3.04896484 -16.24285156 3.04896484 -18.1484375 3.03515625 C-19.55996094 3.01775391 -19.55996094 3.01775391 -21 3 C-21 2.67 -21 2.34 -21 2 C-13.90961228 0.49025965 -7.24997422 -0.28307925 0 0 Z " fill="#3BABFA" transform="translate(205,389)"/>
<path d="M0 0 C5.61 0 11.22 0 17 0 C14.45969541 2.54030459 13.15306578 2.39901205 9.625 2.6875 C8.19027344 2.81705078 8.19027344 2.81705078 6.7265625 2.94921875 C4.23230819 2.99567334 2.36308483 2.7447637 0 2 C0 1.34 0 0.68 0 0 Z " fill="#3CADFB" transform="translate(371,552)"/>
<path d="M0 0 C5.44693314 -0.09688221 10.63904667 -0.12862175 16 1 C15.67 1.66 15.34 2.32 15 3 C9.47322267 3.19392201 5.24385089 2.7479503 0 1 C0 0.67 0 0.34 0 0 Z " fill="#3DADFB" transform="translate(774,552)"/>
<path d="M0 0 C2.97 0 5.94 0 9 0 C10.15941038 3.47823115 9.70820884 5.45895578 9 9 C8.67 9 8.34 9 8 9 C8 6.69 8 4.38 8 2 C5.36 1.67 2.72 1.34 0 1 C0 0.67 0 0.34 0 0 Z " fill="#3AAFFD" transform="translate(379,438)"/>
<path d="M0 0 C3.3 0 6.6 0 10 0 C10 0.99 10 1.98 10 3 C6.7 2.34 3.4 1.68 0 1 C0 0.67 0 0.34 0 0 Z " fill="#3CABFA" transform="translate(174,608)"/>
<path d="M0 0 C0 0.33 0 0.66 0 1 C-1.65 1 -3.3 1 -5 1 C-5 1.66 -5 2.32 -5 3 C-7.31 2.67 -9.62 2.34 -12 2 C-8.09971775 -0.60018816 -4.52565431 -0.15085514 0 0 Z " fill="#3BAAF9" transform="translate(383,436)"/>
<path d="M0 0 C2 1 2 1 2 1 Z " fill="#40AAEF" transform="translate(212,615)"/>
<path d="M0 0 C2 1 2 1 2 1 Z " fill="#41A8EE" transform="translate(204,615)"/>
<path d="M0 0 C2 1 2 1 2 1 Z " fill="#41AAF2" transform="translate(195,614)"/>
<path d="M0 0 C2 1 2 1 2 1 Z " fill="#42ABF3" transform="translate(192,614)"/>
<path d="M0 0 C2 1 2 1 2 1 Z " fill="#45A6E8" transform="translate(660,591)"/>
<path d="M0 0 C2 1 2 1 2 1 Z " fill="#3AADFE" transform="translate(173,577)"/>
<path d="M0 0 C2 1 2 1 2 1 Z " fill="#3AAEFD" transform="translate(219,561)"/>
<path d="M0 0 C2 1 2 1 2 1 Z " fill="#49A8EC" transform="translate(868,556)"/>
<path d="M0 0 C2 1 2 1 2 1 Z " fill="#43A8F1" transform="translate(522,556)"/>
<path d="" fill="#3EABFB" transform="translate(0,0)"/>
<path d="M0 0 C2 1 2 1 2 1 Z " fill="#40AFFE" transform="translate(422,507)"/>
<path d="" fill="#3CACFD" transform="translate(0,0)"/>
<path d="M0 0 C2 1 2 1 2 1 Z " fill="#3AAEFE" transform="translate(684,487)"/>
<path d="M0 0 C2 1 2 1 2 1 Z " fill="#3AACFD" transform="translate(508,487)"/>
<path d="" fill="#41ACFB" transform="translate(0,0)"/>
<path d="M0 0 C2 1 2 1 2 1 Z " fill="#3BAEFE" transform="translate(688,486)"/>
<path d="M0 0 C2 1 2 1 2 1 Z " fill="#3EACF3" transform="translate(865,464)"/>
<path d="M0 0 C2 1 2 1 2 1 Z " fill="#3BB2FF" transform="translate(266,421)"/>
<path d="" fill="#535454" transform="translate(0,0)"/>
<path d="" fill="#3FA9F0" transform="translate(0,0)"/>
<path d="" fill="#3FA8F1" transform="translate(0,0)"/>
<path d="" fill="#42A9F0" transform="translate(0,0)"/>
<path d="" fill="#43A8F2" transform="translate(0,0)"/>
<path d="" fill="#45A9F0" transform="translate(0,0)"/>
<path d="" fill="#44A9F1" transform="translate(0,0)"/>
<path d="" fill="#42ABF5" transform="translate(0,0)"/>
<path d="" fill="#46AAF4" transform="translate(0,0)"/>
<path d="" fill="#46A9F4" transform="translate(0,0)"/>
<path d="" fill="#47A3E6" transform="translate(0,0)"/>
<path d="" fill="#4CA3E1" transform="translate(0,0)"/>
<path d="" fill="#47A3E8" transform="translate(0,0)"/>
<path d="" fill="#40AAF3" transform="translate(0,0)"/>
<path d="" fill="#3CAFFB" transform="translate(0,0)"/>
<path d="" fill="#3CAFFD" transform="translate(0,0)"/>
<path d="" fill="#40B0FF" transform="translate(0,0)"/>
<path d="" fill="#41ACF4" transform="translate(0,0)"/>
<path d="" fill="#3BAEFF" transform="translate(0,0)"/>
<path d="" fill="#4AA7EA" transform="translate(0,0)"/>
<path d="" fill="#44AAF1" transform="translate(0,0)"/>
<path d="" fill="#42AAF6" transform="translate(0,0)"/>
<path d="" fill="#44A8F1" transform="translate(0,0)"/>
<path d="" fill="#44A9F2" transform="translate(0,0)"/>
<path d="" fill="#48A7EB" transform="translate(0,0)"/>
<path d="" fill="#46A3E4" transform="translate(0,0)"/>
<path d="" fill="#3FA9F5" transform="translate(0,0)"/>
<path d="" fill="#43AAF1" transform="translate(0,0)"/>
<path d="" fill="#43AAF4" transform="translate(0,0)"/>
<path d="" fill="#42A9F3" transform="translate(0,0)"/>
<path d="" fill="#3FA9F5" transform="translate(0,0)"/>
<path d="" fill="#3EADF8" transform="translate(0,0)"/>
<path d="" fill="#3CACFE" transform="translate(0,0)"/>
<path d="" fill="#36AAFD" transform="translate(0,0)"/>
<path d="" fill="#3CAEFE" transform="translate(0,0)"/>
<path d="" fill="#3CAFFF" transform="translate(0,0)"/>
<path d="" fill="#41ADF6" transform="translate(0,0)"/>
<path d="" fill="#43ACF5" transform="translate(0,0)"/>
<path d="" fill="#3EAEFB" transform="translate(0,0)"/>
<path d="" fill="#3DAFFF" transform="translate(0,0)"/>
<path d="" fill="#3FAEFC" transform="translate(0,0)"/>
<path d="" fill="#3CAEFE" transform="translate(0,0)"/>
<path d="" fill="#41ACFB" transform="translate(0,0)"/>
<path d="" fill="#3BAFFE" transform="translate(0,0)"/>
<path d="" fill="#3FB1FE" transform="translate(0,0)"/>
<path d="" fill="#3BACFC" transform="translate(0,0)"/>
<path d="" fill="#3CADFC" transform="translate(0,0)"/>
<path d="" fill="#3CAEFE" transform="translate(0,0)"/>
<path d="" fill="#3CAEFE" transform="translate(0,0)"/>
<path d="" fill="#40ACFA" transform="translate(0,0)"/>
<path d="" fill="#3CAEFF" transform="translate(0,0)"/>
<path d="" fill="#3FAAFB" transform="translate(0,0)"/>
<path d="" fill="#3AADFA" transform="translate(0,0)"/>
<path d="" fill="#3CAEFF" transform="translate(0,0)"/>
<path d="" fill="#3BAFFE" transform="translate(0,0)"/>
<path d="" fill="#3EAEFF" transform="translate(0,0)"/>
<path d="" fill="#44AFFA" transform="translate(0,0)"/>
<path d="" fill="#39AEFC" transform="translate(0,0)"/>
<path d="" fill="#3CAEFF" transform="translate(0,0)"/>
<path d="" fill="#3AAEFF" transform="translate(0,0)"/>
<path d="" fill="#3AADFF" transform="translate(0,0)"/>
<path d="" fill="#3DAEFF" transform="translate(0,0)"/>
<path d="" fill="#3CAEFE" transform="translate(0,0)"/>
<path d="" fill="#3BADFE" transform="translate(0,0)"/>
<path d="" fill="#3EAFFD" transform="translate(0,0)"/>
<path d="" fill="#3EADFF" transform="translate(0,0)"/>
<path d="" fill="#40AFFE" transform="translate(0,0)"/>
<path d="" fill="#3FADFE" transform="translate(0,0)"/>
<path d="" fill="#3BAEFF" transform="translate(0,0)"/>
<path d="" fill="#3CAEFE" transform="translate(0,0)"/>
<path d="" fill="#3CAFFD" transform="translate(0,0)"/>
<path d="" fill="#3EAFFD" transform="translate(0,0)"/>
<path d="" fill="#40AEFD" transform="translate(0,0)"/>
<path d="" fill="#3CAEFF" transform="translate(0,0)"/>
<path d="" fill="#3EAFFF" transform="translate(0,0)"/>
<path d="" fill="#3CADFE" transform="translate(0,0)"/>
<path d="" fill="#3FAEFC" transform="translate(0,0)"/>
<path d="" fill="#40AAF7" transform="translate(0,0)"/>
<path d="" fill="#3FAAF6" transform="translate(0,0)"/>
<path d="" fill="#3AACFB" transform="translate(0,0)"/>
<path d="" fill="#3BADFC" transform="translate(0,0)"/>
<path d="" fill="#3BAFFF" transform="translate(0,0)"/>
<path d="" fill="#3AACFD" transform="translate(0,0)"/>
<path d="" fill="#3BACFD" transform="translate(0,0)"/>
<path d="" fill="#39ADFF" transform="translate(0,0)"/>
<path d="" fill="#3AAEFD" transform="translate(0,0)"/>
<path d="" fill="#3DADFE" transform="translate(0,0)"/>
<path d="" fill="#3AB0FD" transform="translate(0,0)"/>
<path d="" fill="#43ABF6" transform="translate(0,0)"/>
<path d="" fill="#3EACF6" transform="translate(0,0)"/>
<path d="" fill="#45A9F1" transform="translate(0,0)"/>
<path d="" fill="#43ABF5" transform="translate(0,0)"/>
<path d="" fill="#46ABF5" transform="translate(0,0)"/>
<path d="" fill="#45A7ED" transform="translate(0,0)"/>
<path d="" fill="#41ACF4" transform="translate(0,0)"/>
<path d="" fill="#40ABF3" transform="translate(0,0)"/>
<path d="" fill="#3FABF4" transform="translate(0,0)"/>
<path d="" fill="#3DABF7" transform="translate(0,0)"/>
<path d="" fill="#39ACFD" transform="translate(0,0)"/>
<path d="" fill="#3AAFFD" transform="translate(0,0)"/>
<path d="" fill="#44AAF9" transform="translate(0,0)"/>
<path d="" fill="#3BADFE" transform="translate(0,0)"/>
<path d="" fill="#3EA8F4" transform="translate(0,0)"/>
<path d="" fill="#45A9ED" transform="translate(0,0)"/>
<path d="" fill="#3DADFC" transform="translate(0,0)"/>
<path d="" fill="#3CAFFD" transform="translate(0,0)"/>
<path d="" fill="#3FAFFC" transform="translate(0,0)"/>
<path d="" fill="#40ADFD" transform="translate(0,0)"/>
<path d="" fill="#3DADFE" transform="translate(0,0)"/>
<path d="" fill="#3EAEFF" transform="translate(0,0)"/>
<path d="" fill="#40AAF4" transform="translate(0,0)"/>
<path d="" fill="#48ACF4" transform="translate(0,0)"/>
<path d="" fill="#43A8F4" transform="translate(0,0)"/>
</svg>
